<svg width="20" height="20" viewBox="0 0 20 20" fill="none" xmlns="http://www.w3.org/2000/svg">
<rect width="19.9797" height="20" rx="9.98985" fill="#112A46"/>
<path d="M12.8922 5.18717C12.8169 4.97944 12.6621 4.81013 12.462 4.71648C12.2618 4.62283 12.0327 4.61251 11.8249 4.68778L7.39304 6.29428C7.18893 6.3723 7.02364 6.52737 6.93276 6.72608C6.84188 6.92479 6.83268 7.15125 6.90714 7.35667C6.98161 7.5621 7.13378 7.73006 7.33088 7.82438C7.52798 7.91871 7.75424 7.93184 7.96093 7.86096L10.5015 6.94003L7.11598 14.1755C7.02231 14.3757 7.012 14.6049 7.08732 14.8127C7.16264 15.0205 7.31742 15.1899 7.5176 15.2835C7.71779 15.3772 7.94698 15.3875 8.15477 15.3122C8.36255 15.2369 8.53191 15.0821 8.62558 14.8819L12.0111 7.64638L12.932 10.187C13.0101 10.3911 13.1651 10.5564 13.3638 10.6473C13.5626 10.7381 13.789 10.7473 13.9944 10.6729C14.1999 10.5984 14.3678 10.4462 14.4622 10.2491C14.5565 10.052 14.5696 9.82577 14.4987 9.61908L12.8922 5.18717Z" fill="white"/>
</svg>
