<svg width="50" height="50" viewBox="0 0 50 50" fill="none" xmlns="http://www.w3.org/2000/svg">
<path fill-rule="evenodd" clip-rule="evenodd" d="M25.0003 7.3718C20.4812 7.3718 14.3048 7.78652 10.4481 8.08531C9.17982 8.18357 8.18389 9.1795 8.08563 10.4478C7.78685 14.3045 7.37212 20.4809 7.37212 25C7.37212 29.5191 7.78685 35.6955 8.08563 39.5522C8.18389 40.8205 9.17982 41.8164 10.4481 41.9147C14.3048 42.2135 20.4812 42.6282 25.0003 42.6282C29.5195 42.6282 35.6958 42.2135 39.5525 41.9147C40.8208 41.8164 41.8168 40.8205 41.915 39.5522C42.2138 35.6955 42.6285 29.5191 42.6285 25C42.6285 20.4809 42.2138 14.3045 41.915 10.4478C41.8168 9.1795 40.8208 8.18357 39.5525 8.08531C35.6958 7.78652 29.5195 7.3718 25.0003 7.3718ZM10.2006 4.88976C14.059 4.59083 20.345 4.16667 25.0003 4.16667C29.6556 4.16667 35.9416 4.59083 39.8001 4.88976C42.6432 5.11002 44.8903 7.35711 45.1106 10.2003C45.4095 14.0587 45.8337 20.3447 45.8337 25C45.8337 29.6553 45.4095 35.9413 45.1106 39.7997C44.8903 42.6429 42.6432 44.89 39.8001 45.1102C35.9416 45.4092 29.6556 45.8333 25.0003 45.8333C20.345 45.8333 14.059 45.4092 10.2006 45.1102C7.35743 44.89 5.11035 42.6429 4.89008 39.7997C4.59115 35.9413 4.16699 29.6553 4.16699 25C4.16699 20.3447 4.59115 14.0587 4.89008 10.2003C5.11035 7.3571 7.35743 5.11002 10.2006 4.88976Z" fill="white"/>
<path fill-rule="evenodd" clip-rule="evenodd" d="M16.4533 25.5342C17.3384 25.5342 18.0559 26.2517 18.0559 27.1368L18.0559 33.547C18.0559 34.4321 17.3384 35.1496 16.4533 35.1496C15.5682 35.1496 14.8508 34.4321 14.8508 33.547L14.8508 27.1368C14.8508 26.2517 15.5682 25.5342 16.4533 25.5342Z" fill="white"/>
<path fill-rule="evenodd" clip-rule="evenodd" d="M25.0003 19.1239C25.8854 19.1239 26.6029 19.8414 26.6029 20.7265V33.547C26.6029 34.4321 25.8854 35.1496 25.0003 35.1496C24.1153 35.1496 23.3978 34.4321 23.3978 33.547V20.7265C23.3978 19.8414 24.1153 19.1239 25.0003 19.1239Z" fill="white"/>
<path fill-rule="evenodd" clip-rule="evenodd" d="M33.5473 12.7137C34.4324 12.7137 35.1499 13.4312 35.1499 14.3162V33.547C35.1499 34.4321 34.4324 35.1496 33.5473 35.1496C32.6623 35.1496 31.9448 34.4321 31.9448 33.547V14.3162C31.9448 13.4312 32.6623 12.7137 33.5473 12.7137Z" fill="white"/>
</svg>
