<svg width="42" height="42" viewBox="0 0 42 42" fill="none" xmlns="http://www.w3.org/2000/svg">
<path fill-rule="evenodd" clip-rule="evenodd" d="M21.0003 3.37179C16.4812 3.37179 10.3048 3.78652 6.44815 4.08531C5.17982 4.18357 4.18389 5.1795 4.08563 6.44782C3.78685 10.3045 3.37212 16.4809 3.37212 21C3.37212 25.5191 3.78685 31.6955 4.08563 35.5522C4.18389 36.8205 5.17982 37.8164 6.44814 37.9147C10.3048 38.2135 16.4812 38.6282 21.0003 38.6282C25.5195 38.6282 31.6958 38.2135 35.5525 37.9147C36.8208 37.8164 37.8168 36.8205 37.915 35.5522C38.2138 31.6955 38.6285 25.5191 38.6285 21C38.6285 16.4809 38.2138 10.3045 37.915 6.44782C37.8168 5.1795 36.8208 4.18357 35.5525 4.08531C31.6958 3.78652 25.5195 3.37179 21.0003 3.37179ZM6.20058 0.889754C10.059 0.590828 16.345 0.166667 21.0003 0.166667C25.6556 0.166667 31.9416 0.590828 35.8001 0.889754C38.6432 1.11002 40.8903 3.3571 41.1106 6.20025C41.4095 10.0587 41.8337 16.3447 41.8337 21C41.8337 25.6553 41.4095 31.9413 41.1106 35.7997C40.8903 38.6429 38.6432 40.89 35.8001 41.1102C31.9416 41.4092 25.6556 41.8333 21.0003 41.8333C16.345 41.8333 10.059 41.4092 6.20058 41.1102C3.35743 40.89 1.11035 38.6429 0.890079 35.7997C0.591154 31.9413 0.166992 25.6553 0.166992 21C0.166992 16.3447 0.591154 10.0587 0.89008 6.20025C1.11035 3.3571 3.35743 1.11002 6.20058 0.889754Z" fill="#333333"/>
<path fill-rule="evenodd" clip-rule="evenodd" d="M12.4533 21.5342C13.3384 21.5342 14.0559 22.2517 14.0559 23.1367L14.0559 29.547C14.0559 30.4321 13.3384 31.1496 12.4533 31.1496C11.5682 31.1496 10.8508 30.4321 10.8508 29.547L10.8508 23.1367C10.8508 22.2517 11.5682 21.5342 12.4533 21.5342Z" fill="#333333"/>
<path fill-rule="evenodd" clip-rule="evenodd" d="M21.0003 15.1239C21.8854 15.1239 22.6029 15.8414 22.6029 16.7265V29.547C22.6029 30.4321 21.8854 31.1496 21.0003 31.1496C20.1153 31.1496 19.3978 30.4321 19.3978 29.547V16.7265C19.3978 15.8414 20.1153 15.1239 21.0003 15.1239Z" fill="#333333"/>
<path fill-rule="evenodd" clip-rule="evenodd" d="M29.5473 8.71367C30.4324 8.71367 31.1499 9.43117 31.1499 10.3162V29.547C31.1499 30.4321 30.4324 31.1496 29.5473 31.1496C28.6623 31.1496 27.9448 30.4321 27.9448 29.547V10.3162C27.9448 9.43117 28.6623 8.71367 29.5473 8.71367Z" fill="#333333"/>
</svg>
